# xmcd
#
# Track frame offsets:
#	182
#	14457
#	24980
#	38737
#	58057
#	74145
#	93632
#	105345
#	118622
#	131452
#	142910
#	156327
#	174000
#	188895
#	202357
#	217485
#	230540
#	242337
#
# Disc length: 3482 seconds
#
# Revision: 5
# Processed by: cddbd v1.5.2PL0 Copyright (c) Steve Scherf et al.
# Submitted via: dBpowerAMP V4.0
#
DISCID=040d9812
DTITLE=Various Artist - Country Collection 2
DYEAR=1993
DGENRE=Country
TTITLE0=Bellamy Brothers - If I Said You Had a Beautiful Body
TTITLE1=Emmylou Harris - mr. Sandman
TTITLE2=Tom Jones - Green Green Grass of Home
TTITLE3=The Judds - Water of Love
TTITLE4=Dolly Parton - Romeo
TTITLE5=Timi Yuro - Crazy
TTITLE6=Sutherland Brothers And Quiver - Arms of Mary
TTITLE7=Tammy Wynette - D.I.V.O.R.C.E.
TTITLE8=Frankie Laine - Moonlight Gambler
TTITLE9=Patsy Cline - Walkin' After Midnight
TTITLE10=Sommerset - Almost Persuaded
TTITLE11=Walkers, The - Oh, Lonesome Me
TTITLE12=Olivia Newton-John - Take me Home Country Roads
TTITLE13=Piet Veerman - Annie's Song
TTITLE14=Mary-Chapin Carpenter - Passionate Kisses
TTITLE15=Dr. Hook - Cover of The Rolling Stone
TTITLE16=Marie Williams - Don't it Make my Brown Eyes Blue
TTITLE17=Ray Charles - I Can't Stop Loving You
EXTD=
EXTT0=
EXTT1=
EXTT2=
EXTT3=
EXTT4=
EXTT5=
EXTT6=
EXTT7=
EXTT8=
EXTT9=
EXTT10=
EXTT11=
EXTT12=
EXTT13=
EXTT14=
EXTT15=
EXTT16=
EXTT17=
PLAYORDER=
